<mxfile host="app.diagrams.net" agent="Mozilla/5.0 (Macintosh; Intel Mac OS X 10_15_7) AppleWebKit/537.36 (KHTML, like Gecko) Chrome/131.0.0.0 Safari/537.36 Edg/131.0.0.0" version="26.0.11">
  <diagram name="第 1 页" id="Wgpo2z5KQU_UvKr207dG">
    <mxGraphModel dx="950" dy="685" grid="1" gridSize="10" guides="1" tooltips="1" connect="1" arrows="1" fold="1" page="1" pageScale="1" pageWidth="1169" pageHeight="827" math="0" shadow="0">
      <root>
        <mxCell id="0" />
        <mxCell id="1" parent="0" />
        <mxCell id="Il0opDdOFkqLLMlfTNy--44" value="" style="shape=flexArrow;endArrow=classic;startArrow=classic;html=1;rounded=0;fillColor=#dae8fc;strokeColor=none;align=center;arcSize=16;width=6;startWidth=7;endWidth=7;" edge="1" parent="1">
          <mxGeometry width="100" height="100" relative="1" as="geometry">
            <mxPoint y="339.13" as="sourcePoint" />
            <mxPoint x="80" y="339.13" as="targetPoint" />
          </mxGeometry>
        </mxCell>
        <mxCell id="Il0opDdOFkqLLMlfTNy--45" value="Pluggable" style="edgeLabel;html=1;align=center;verticalAlign=middle;resizable=0;points=[];fontSize=10;fontFamily=Times New Roman;spacing=0;" vertex="1" connectable="0" parent="Il0opDdOFkqLLMlfTNy--44">
          <mxGeometry relative="1" as="geometry">
            <mxPoint y="-2" as="offset" />
          </mxGeometry>
        </mxCell>
        <mxCell id="Il0opDdOFkqLLMlfTNy--1" value="&lt;font face=&quot;Times New Roman&quot;&gt;Any Half-Duplex LLM&lt;/font&gt;" style="rounded=1;whiteSpace=wrap;html=1;fontSize=9;fillColor=#dae8fc;strokeColor=#6c8ebf;fontStyle=1" vertex="1" parent="1">
          <mxGeometry x="80" y="240" width="90" height="20" as="geometry" />
        </mxCell>
        <mxCell id="Il0opDdOFkqLLMlfTNy--2" value="&lt;font face=&quot;Times New Roman&quot;&gt;Duplex Model&lt;/font&gt;" style="rounded=1;whiteSpace=wrap;html=1;fontSize=12;fillColor=#dae8fc;strokeColor=#6c8ebf;glass=0;shadow=0;comic=0;enumerate=0;fontStyle=1" vertex="1" parent="1">
          <mxGeometry x="80" y="320" width="90" height="40" as="geometry" />
        </mxCell>
        <mxCell id="Il0opDdOFkqLLMlfTNy--3" value="&lt;font face=&quot;Times New Roman&quot;&gt;User&lt;/font&gt;" style="rounded=1;whiteSpace=wrap;html=1;fontSize=11;fillColor=#dae8fc;strokeColor=#6c8ebf;fontStyle=1" vertex="1" parent="1">
          <mxGeometry x="80" y="413" width="90" height="20" as="geometry" />
        </mxCell>
        <mxCell id="Il0opDdOFkqLLMlfTNy--6" value="Idle" style="rounded=0;whiteSpace=wrap;html=1;strokeColor=none;fillColor=#d5e8d4;fontSize=10;fontFamily=Times New Roman;" vertex="1" parent="1">
          <mxGeometry x="220" y="340" width="190" height="20" as="geometry" />
        </mxCell>
        <mxCell id="Il0opDdOFkqLLMlfTNy--38" value="State" style="text;html=1;align=center;verticalAlign=middle;whiteSpace=wrap;rounded=0;fontSize=11;fontFamily=Times New Roman;fontStyle=1" vertex="1" parent="1">
          <mxGeometry x="180" y="340" width="30" height="20" as="geometry" />
        </mxCell>
        <mxCell id="Il0opDdOFkqLLMlfTNy--41" value="Idle" style="rounded=0;whiteSpace=wrap;html=1;strokeColor=none;fillColor=#d5e8d4;fontSize=10;fontFamily=Times New Roman;" vertex="1" parent="1">
          <mxGeometry x="40" y="580" width="60" height="20" as="geometry" />
        </mxCell>
        <mxCell id="Il0opDdOFkqLLMlfTNy--42" value="Listen" style="rounded=0;whiteSpace=wrap;html=1;strokeColor=none;fillColor=#fff2cc;fontSize=10;fontFamily=Times New Roman;" vertex="1" parent="1">
          <mxGeometry x="80" y="600" width="60" height="20" as="geometry" />
        </mxCell>
        <mxCell id="Il0opDdOFkqLLMlfTNy--43" value="Talk" style="rounded=0;whiteSpace=wrap;html=1;strokeColor=none;fillColor=#dae8fc;fontSize=10;fontFamily=Times New Roman;" vertex="1" parent="1">
          <mxGeometry x="110" y="620" width="60" height="20" as="geometry" />
        </mxCell>
        <mxCell id="Il0opDdOFkqLLMlfTNy--48" value="Context" style="text;html=1;align=center;verticalAlign=middle;whiteSpace=wrap;rounded=0;fontSize=11;fontFamily=Times New Roman;fontStyle=1" vertex="1" parent="1">
          <mxGeometry x="170" y="320" width="50" height="20" as="geometry" />
        </mxCell>
      </root>
    </mxGraphModel>
  </diagram>
</mxfile>
